<?xml version="1.0" encoding="utf-8"?>
<!-- Generator: Adobe Illustrator 21.0.0, SVG Export Plug-In . SVG Version: 6.00 Build 0)  -->
<svg version="1.1" id="Layer_1" xmlns="http://www.w3.org/2000/svg" xmlns:xlink="http://www.w3.org/1999/xlink" x="0px" y="0px"
	 viewBox="0 0 595.3 841.9" style="enable-background:new 0 0 595.3 841.9;" xml:space="preserve">
<style type="text/css">
	.st0{fill:#0C3342;}
	.st1{fill:#F27225;}
	.st2{fill:#1BC2F2;}
	.st3{fill:#F0F0F0;}
</style>
<g>
	<path class="st0" d="M294.7,362.6c0.4,1.8,0.6,3.6,1.2,5.2c0.6,1.5,0.9,3.4,3.7,2.2c1.8-0.8,4.2,1.9,4.4,4.7
		c0.3,4.1-1.8,7.2-4.7,9.9c-1.1,1-2.1,0.4-3.1-0.7c-4-4.4-6.5-9.6-8.3-15.1c-2.9-8.5-3.4-17.3-3.2-26.3c0.1-5.3,1.9-8.9,6.8-11.4
		c8.8-4.5,17.4-9.4,27.1-11.6c5.2-1.2,10.7-1.7,15.9,0.7c1.8,0.8,2.3,1,2.4-1.8c0.1-4-1.1-7.7-1.5-11.5c-0.9-9.6,7.3-15.8,16.5-12.6
		c9.6,3.4,14.1,13.7,11.3,22.7c-1.1,3.4-2.3,6.8-3.9,10c-0.8,1.7-2,2.9-4.2,2.4c-1.1-0.3-2.4-0.2-3.6-0.1c-3.6,0.1-4.7,2-3.2,5.3
		c1.5,3.3,3.6,6.2,5.7,9.1c2.8,3.8,3.2,7.9,2.2,12.3c-1.9,8.2-5.5,15.5-10.9,22c-2.7,3.3-4.7,6.9-5.9,11c-0.2,0.8-0.3,2.1-1.5,1.8
		c-1.2-0.3-0.8-1.5-0.7-2.3c0.5-4.3,2.9-7.7,5-11.3c0.5-0.8,1-1.5,1.5-2.2c1.4-0.8,2.1-2,2.3-3.6c0.1-0.4,0.1-0.7,0.2-1.1
		c3-1.5,3.6-4.6,4.3-7.2c0.5-1.8,2.6-3.8,0.7-6.2c0.2,3-1.8,5-2.8,7.4c-2,4.6-5.6,8.3-8,12.6c-0.3,0.3-0.6,0.7-0.8,1
		c-0.1-0.1-0.3-0.1-0.4-0.2c0,0.1,0.1,0.3,0.1,0.4c-0.5,0.7-1.1,1.4-1.6,2.1c-0.1-0.1-0.1-0.2-0.2-0.2c-0.1,0-0.2,0.1-0.2,0.1
		c-0.9,1.2-1.7,2.4-2.7,3.5c-1.1,1.1-0.4,1.7,0.3,2.5c-0.5,1.1-0.3,2.6-1.5,3.4c-1-0.4-1.9-0.8-2.9-1c-1.1-0.2-2.8-0.8-3.2,0.4
		c-0.4,1,1.5,1.2,2.2,2c0,0,0.3-0.1,0.5-0.2c0.7,0.3,1.4,0.6,2.1,0.9c-0.1,0.1-0.2,0.3-0.2,0.4c0.2,0.2,0.4,0.2,0.5-0.2
		c2.4,1.5,4.7,3.1,7.1,4.6c-0.1,0-0.2,0.1-0.3,0.1c0,0.1,0,0.3,0,0.3c0.8,0.4,1.2,1.6,2.4,1.2c13.6,10.7,23.7,24.1,31,39.7
		c0.8,1.6,1,3.3,0.5,5c-2.3,8-3.9,16.1-5.3,24.2c-1.6,8.9-2.9,17.8-2.2,26.8c0.1,0.7,0,1.7,0.4,2c4.2,3.7,4.2,9.6,7.6,13.7
		c0.4,0.4,1.1,0.8,0.5,1.5c-0.4,0.5-1.1,0.2-1.7,0c-0.9-0.2-1.8-1.6-2.6-0.5c-0.3,0.5,1.1,1.5,1.9,2c3.4,2.4,7.2,4.2,11.3,5.4
		c3.2,0.9,3.9,2.9,2.5,6c-0.9,1.9-2.3,2.3-4.2,2c-10.7-2.1-21-5.3-30.8-10.3c-1.4-0.7-2.8-1.6-3.8-2.9c-1.4-1.8-0.7-3.6,1.5-4
		c1.3-0.2,1.3-0.9,1.2-1.9c-0.4-4.3,1.3-7.8,4.5-10.6c1-0.9,1.2-2,1.3-3.2c0.6-5.6-0.7-10.9-2.3-16.2c-2.3-7.5-4.8-15-4.1-23.1
		c0.5-5.7,3.3-10.1,7.2-14.1c0.4-0.4,1.5-0.7,0.9-1.6c-0.4-0.6-1.3-0.4-2-0.3c-0.1,0-0.2,0-0.3,0.1c-4.8,3.9-8.7,0.8-12.8-1.6
		c-11.6-6.7-22.9-13.8-31.9-23.9c-3.7-4.2-6.8-8.8-8.1-14.4c-1.1-4.7-0.3-8.9,3-12.5c5.8-6.5,11.1-13.3,15.1-21
		c0.5-0.9,0.8-1.8,1.3-2.7c0.5-1,1.5-2.1,0.6-3c-1.1-1.2-1.5,0.7-2.3,1c-2.3,1.1-1.6-0.8-1.6-1.6c0-4.5-0.3-9-1.8-13.3
		c-0.2-0.5-0.1-1.1-0.4-1.4c-2-2.9-0.6-4.5,2.1-5.6c1-0.6,3.4-1,3-1.5c-1-1.3-2.7-0.4-4.1,0.1c-0.1,0-0.2,0.3-0.3,0.5
		c-2.9,0-5.4,1.5-8.1,2.2c-0.4-0.3-0.5-0.2-0.5,0.3c-0.9,0.4-1.7,0.7-2.5,1.1c-1.6-0.1-2.6,1-3.9,1.6c-1.4,0.7-2,0.6-2.2-1
		c-0.1-0.6,0.4-1.7-0.5-1.7c-0.6,0-1.7,0.7-1.8,1.3c-0.6,2.9-2.8,5.5-2,8.8c-0.2,1.4-0.3,2.7-0.5,4.1
		C293.7,356.4,293.7,359.5,294.7,362.6z M360.4,317.2c0.7-2.4,1.5-4.2-0.7-5.4c-0.9-0.5-2.4-1-3,0c-0.8,1.3,0.5,2,1.5,2.3
		C359.7,314.6,360,315.7,360.4,317.2z"/>
	<path class="st1" d="M424,394.7c-0.4,25.7-8.3,47.3-24.2,65.7c-7.7,8.9-16.9,16.1-27.3,21.6c-0.9,0.5-2,1.3-3.1,0.5
		c-0.8-0.6-0.3-1.7-0.1-2.6c1.3-9.5,2.6-18.9,5.1-28.2c0.6-2.4,1-4.9,1.7-7.2c1.2-3.8,0.1-7.2-1.6-10.6
		c-6.8-13.7-15.2-26.2-26.6-36.6c-0.4-0.4-0.9-0.8-1.3-1.2c-5.2-4.3-5.4-5.5-1.9-11.4c1-1.7,1.8-1.8,3-0.1c1.8,2.5,4.1,4.4,6.8,5.8
		c2.1,1.1,4.1,1.2,6.1-0.3c6.7-4.9,10.7-11.7,14.1-19c3-6.5,4.1-13.7,7-20.2c2.4-5.3-4.1-13.7-9.9-14c-6.7-0.4-8.3,0.5-9.1,9.2
		c-0.2,2.1-0.1,4.1,0.8,6.2c0.9,2.1,0.5,4.3-0.8,6.3c-0.3,0.4-0.7,0.5-1,0.1c-1.1-1.7-2.3-3.3-1.9-5.5c1-6-2.2-10.5-5.5-15
		c-1-1.4-3.2-3.1-1.9-4.9c1.1-1.6,3.4-0.5,5-0.2c1.5,0.3,2.2-0.1,2.9-1.3c3.8-5.8,6.5-12.1,6.9-19.1c0.2-4,0.3-4.1,3.7-2.5
		c7.1,3.5,13.6,7.9,19.6,13.1c6.2,5.4,11.7,11.4,16.3,18.2c5.8,8.5,10.2,17.7,13.1,27.7C422.4,377.9,423.6,386.9,424,394.7z"/>
	<path class="st2" d="M205.1,313.2c0-12.4,1.3-24.7,4.4-36.7c0.1-0.5,0.1-1,0.2-1.5c0.2-0.9-0.4-2.4,1.1-2.4c0.9,0,1,1.4,1.1,2.2
		c0.3,1.4,0.6,2.8,0.6,4.1c0.5,9.7,3.1,19,5.8,28.2c4.7,16.6,12.3,31.7,22.9,45.3c12.2,15.6,27.4,27.5,45.4,35.6
		c2.7,1.2,5.4,2.4,8.3,3.3c1.5,0.5,3.3,1.1,3.2,3.3c0,2.1,0.4,4.2,1.2,6.1c0.5,1.3,0.2,2.3-1,3.1c-7.6,4.8-12.6,11.8-16.5,19.7
		c-0.8,1.6-1.7,1.7-3.1,1.1c-15.7-6.8-30.1-15.6-42.1-27.9c-13.4-13.7-22.4-29.9-27.1-48.4C206.5,336.9,204.9,325.2,205.1,313.2z"/>
	<path class="st1" d="M325.9,493.5c-29.8-0.6-54.6-12-74.2-34.6c-0.4-0.5-0.8-0.9-1.1-1.4c-0.4-0.7-1-1.3-0.5-2.2
		c0.5-0.9,1.4-0.6,2.2-0.6c7.1,0.8,14.4,0.7,21.4,2.1c6.1,1.2,11-2.3,15.9-5c10.9-6.1,19.7-14.5,26.9-24.7c1-1.5,2.2-2.4,3.9-1
		c7.7,6.4,16.6,11,25.3,15.8c2.2,1.2,2.4,2.5,1.6,4.6c-1.6,4-1.9,8.3-1.6,12.6c0.6,8.2,3.2,15.8,5.6,23.5c0.1,0.3,0.2,0.6,0.3,0.9
		c1.7,5.7,0.8,6.9-5,8.1C339.7,492.9,332.9,493.1,325.9,493.5z"/>
	<path class="st2" d="M259.9,341c-1.4-3.2-3.8-4.7-5.3-6.9c-0.9-1.4-1.1-2.3,0.1-3.6c8-8.4,17.2-15.3,27.6-20.6
		c7.2-3.7,14.8-6.5,22.7-8.3c8.2-1.9,16.6-2.7,25-2.2c1,0.1,2.4,0.4,2,1.6c-1.5,4.3,0.5,8.3,1,12.4c0.3,1.9-0.4,2.7-2.2,2.4
		c-6-1.1-11.8,0.2-17.3,2.1c-9.4,3.2-18.2,7.8-27,12.6c-4.1,2.2-4.4,5.7-4.7,9.3c-0.8,12-0.3,23.9,4.6,35.2c0.3,0.7,1.1,1.4,0.4,2.2
		c-0.7,0.8-1.7,0.3-2.5,0c-19.4-8-34.9-20.8-46.7-38.2c-5.9-8.7-10.4-18-14-27.9c-0.6-1.8-0.7-3.7-1.6-5.5c-0.3-0.5-0.4-1.4,0.2-1.6
		c0.7-0.3,0.9,0.5,1.3,1c5,7.1,10.2,14.1,16.2,20.3C245.5,331.2,251.8,336.8,259.9,341z"/>
	<path class="st0" d="M204.6,452.2c-1.1,0-2.2,0-3.4,0c-0.1-0.2-0.2-0.4-0.4-0.6c0.4-0.3,0.7-0.6,1.1-1c0.3-0.1,0.7-0.2,0.7-0.4
		c0.3-0.9,2.4-0.6,1.5-1.9c-0.6-0.8-1.8-0.3-2.6,0.4c-0.1,0.1-0.2,0.3-0.4,0.5c-0.6,0.2-1.1,0.4-1.7,0.6c-3.5,1.5-6.2,4.1-8.7,6.9
		c-1.7,2-3.3,1.8-5.2,0.3c-1.9-1.5-1.8-3.2-0.5-4.9c1.9-2.5,3.7-5.1,5.9-7.5c2.1-2.2,4-4.6,5.9-6.9c0.3-0.3,0.7-0.6,1-0.9
		c4.2-3.3,8.5-6.7,12.7-10c1.2-0.2,2.3-0.3,3.5,0.1c0.4,1.3,1,2.7-1.3,2.9c-0.5,0-1.1,0.3-0.9,0.9c0.1,0.3,0.5,0.6,0.9,0.6
		c3.6,0.4,6.2,2.6,8.8,4.8c1,1.9,2.5,2.6,4.7,2.5c8.8-0.2,17.2-2.1,25.3-5.2c6.1-2.3,12.3-3.4,18.7-0.8c2.6,1,2.7,1.7,0.7,3.7
		c-0.7,0.7-2.7,0.9-1.9,2.1c0.7,1.1,2.4,0.3,3.6-0.2c7.3-2.8,10.4-9.1,13.7-15.5c2.8-5.5,6.3-10.3,11.1-14.3
		c1.7-1.4,2.9-1.8,4.3,0.4c2.9,4.7,6.9,8.4,11.2,11.8c1.7,1.4,1.9,2.4,0.5,4.4c-8.8,12.9-20.3,22.3-34.8,28
		c-1.3,0.5-2.5,0.4-3.8,0.2c-18.1-2.7-36.4-3.1-54.7-2.5c-3.3,0.1-6.6,2-10.1,1.1C208.2,451.7,206.4,451.7,204.6,452.2z"/>
	<path class="st2" d="M237,434.6c-1.8,0.1-2.7-1.5-3.6-2.7c-5.3-7.2-9.8-14.7-13.3-23c-3.3-7.9-5.5-16.2-7.1-24.6
		c-0.8-4.1-0.9-8.3-1.3-12.5c0-0.4,0.1-0.8,0.2-1.1c0.5,0.3,1.2,0.5,1.4,0.9c1.2,2.4,2.4,4.8,3.5,7.2c8.9,18.2,21.7,33.1,38.4,44.6
		c1.8,1.2,3.7,2.4,5.5,3.5c0.8,0.5,0.9,1.3-0.1,1.4c-8,0.8-15.2,4.6-23,6.2C237.5,434.5,237.3,434.5,237,434.6z"/>
	<path class="st0" d="M368.1,340.3c1.3,1.7,0.3,3.8,0.9,5.7c-0.6,2.2,1,3.2,2.5,4.1c0.4,0.3,1.6-0.1,1.1-0.5
		c-1.3-1.2-0.5-3.5-2.6-4.1c0.3-1.8-0.9-4.3,1.5-5.2c2.6-0.9,3.6,1.7,5,3.2c0.1,0.1,0.1,0.2,0.2,0.2c1.8,3.2,2.1,6.4-0.1,9.6
		c-0.3,0.4-0.9,0.8-0.4,1.5c-0.2,0.7-0.3,1.5-0.5,2.2c-0.9,0.5-0.9,1.2-0.7,2.1c-0.2,1.1-0.5,2.2-0.7,3.3c-1.6,1.6-1.4,3.9-2.3,5.7
		c-0.2,0.7-0.4,1.4-0.6,2c-0.5,0.2-1,0.4-0.7,1.1c-0.4,0.8-0.7,1.7-1.1,2.5c-0.7,0.1-1,0.4-0.7,1c-0.5,0.9-1.1,1.8-1.6,2.7
		c-0.7,0.2-0.9,0.8-0.9,1.5c-0.4,0.6-0.9,1.2-1.3,1.8c-1.4,0.5-2,1.9-3,2.8c-2.2,2-4.1,4.6-7.7,3.1c-0.4-0.3-0.8-0.6-1.1-0.9
		c-0.4-0.9-0.7-2-2.1-2c-0.3-0.4-0.5-0.8-0.8-1.2c-1.3-2.4-0.2-4.2,1.2-6.2c2.2-3,3.7-6.5,5.1-10c0.4-1.2,0.5-3,2.1-2.7
		c1.3,0.2,1.2,2.1,1.5,3.3c0.2,0.6-0.3,1.3-0.5,2c-0.5,2.2-2.4,3.9-2.7,6.9c4.3-4,6.9-8.3,8.1-13.5c0.2-0.9,0.4-1.8,0.6-2.7
		c1.4-1,0.7-2.9,1.5-4c2.4-3.1-0.2-4.8-1.6-6.9c0-1,0-2,0-2.9C366.6,343.9,367.3,342.1,368.1,340.3z"/>
	<path class="st2" d="M298,357.2c0-0.4,0-0.8,0-1.2c0.3-2.6-0.9-5.7,1.2-7.8c3-3.1,7-4.9,11-6.5c1.5-0.6,2.1,0.7,2.6,1.9
		c2.6,7.5,2.9,15.3,1.6,23c-0.6,3.3-3,6-5.4,8.5c-1,1-1.5,0.8-1.7-0.5c-0.6-4.1-3-6.6-6.9-7.8c-1.6-0.5-2.1-1.8-2.1-3.3
		c0-2.1,0-4.2,0-6.3C298.1,357.2,298.1,357.2,298,357.2z"/>
	<path class="st2" d="M365.3,362.2c-1.2,5.2-3.7,9.5-8.1,13.5c0.3-3,2.2-4.6,2.7-6.9c0.2-0.7,0.7-1.4,0.5-2c-0.4-1.2-0.2-3-1.5-3.3
		c-1.6-0.3-1.7,1.5-2.1,2.7c-1.3,3.5-2.8,7-5.1,10c-1.5,2-2.5,3.8-1.2,6.2c-1.8-1.3-1.9-2.8-0.6-4.6c3.2-4.5,5.6-9.3,7.1-14.6
		c0.3-1,0.8-2.1,1.8-2.1c1.2-0.1,0.9,1.3,1.2,2c0.2,0.5,0.2,1.1,0.5,1.4c1,0.9,0.2,3.3,1.5,3.1c1.2-0.2,1.7-2.2,2.2-3.6
		C364.4,363.4,364.3,362.5,365.3,362.2z"/>
	<path class="st2" d="M346,371.3c-0.3,1.5-0.9,2.8-2.3,3.6c-1.9-0.8-2,1.6-3.3,1.9c2.5-4.4,6-8,8-12.6c1-2.4,3-4.4,2.8-7.4
		c2,2.4-0.2,4.4-0.7,6.2c-0.7,2.6-1.4,5.8-4.3,7.2c-0.3,0.2-1,0.1-1,0.7C345.2,371.4,345.7,371.1,346,371.3z"/>
	<path class="st2" d="M295.2,349.2c-0.9-3.3,1.4-5.8,2-8.8c0.1-0.6,1.2-1.3,1.8-1.3c0.9,0.1,0.4,1.1,0.5,1.7c0.2,1.6,0.8,1.7,2.2,1
		c1.3-0.6,2.3-1.8,3.9-1.6c-1.5,1.5-3.6,2.1-5.4,3.2c-0.2,0.2-0.6,0.3-0.8,0.3c-2.5-0.1-2.5-0.1-3.4,2.7
		C295.7,347.4,295.5,348.3,295.2,349.2z"/>
	<path class="st2" d="M354.4,386.5c3.6,1.5,5.5-1,7.7-3.1c1-0.9,1.6-2.3,3-2.8c-1.5,3.1-4.2,5.1-6.9,7
		C356.6,388.8,355.4,387.6,354.4,386.5z"/>
	<path class="st2" d="M365.9,348.6c1.3,2.1,3.9,3.9,1.6,6.9c-0.8,1.1-0.1,3-1.5,4c-0.1-0.2-0.2-0.4-0.2-0.5
		C367.5,355.6,367.4,352.1,365.9,348.6z"/>
	<path class="st2" d="M370.1,345.5c2.1,0.6,1.3,2.9,2.6,4.1c0.5,0.5-0.7,0.8-1.1,0.5c-1.5-1-3.1-1.9-2.5-4.1
		C369.4,345.8,369.7,345.7,370.1,345.5z"/>
	<path class="st2" d="M376.2,354.8c-0.4-0.7,0.2-1.1,0.4-1.5c2.2-3.2,1.9-6.4,0.1-9.6C380,347.2,379.9,350,376.2,354.8z"/>
	<path class="st2" d="M329.8,390.5c-0.2,0.1-0.4,0.2-0.5,0.2c-0.7-0.8-2.6-1-2.2-2c0.5-1.2,2.1-0.6,3.2-0.4c1,0.2,1.9,0.7,2.9,1
		C332.1,389.9,330.5,388.8,329.8,390.5z"/>
	<path class="st2" d="M334.7,385.9c-0.7-0.8-1.4-1.4-0.3-2.5c1-1,1.8-2.3,2.7-3.5c0.1-0.1,0.2-0.1,0.2-0.1c0.1,0,0.1,0.1,0.2,0.2
		C336.6,382,335.7,384,334.7,385.9z"/>
	<path class="st2" d="M294.7,362.6c-1-3.1-1-6.2,0-9.3C295.1,356.4,295.1,359.5,294.7,362.6z"/>
	<path class="st2" d="M316.7,336.8c0.1-0.2,0.2-0.4,0.3-0.5c1.4-0.5,3.1-1.4,4.1-0.1c0.4,0.5-2,0.8-3,1.5
		C317.5,337.4,316.9,337.4,316.7,336.8z"/>
	<path class="st2" d="M372.1,368c1-1.8,0.7-4.2,2.3-5.7C373.8,364.3,373.7,366.5,372.1,368z"/>
	<path class="st2" d="M368.1,340.3c-0.7,1.8-1.5,3.6-2.2,5.4c-0.4-2.2,0.7-3.9,1.8-5.5c0-0.1,0.2-0.1,0.3-0.1
		C368,340.1,368,340.2,368.1,340.3z"/>
	<path class="st2" d="M351.2,383.7c1.3,0,1.6,1.1,2.1,2C352.2,385.3,351.6,384.6,351.2,383.7z"/>
	<path class="st2" d="M341.5,397.9c-1.2,0.3-1.6-0.8-2.4-1.2c0,0-0.1-0.2,0-0.3c0-0.1,0.2-0.1,0.3-0.1
		C340.1,396.7,341.1,396.9,341.5,397.9z"/>
	<path class="st2" d="M375.1,359c-0.2-0.8-0.2-1.6,0.7-2.1C376.1,357.8,375.8,358.5,375.1,359z"/>
	<path class="st2" d="M366.4,378.8c0.1-0.7,0.2-1.2,0.9-1.5C367.4,378.1,367.3,378.7,366.4,378.8z"/>
	<path class="st2" d="M370.8,371.1c-0.4-0.7,0.1-0.9,0.7-1.1C371.8,370.8,371.4,371,370.8,371.1z"/>
	<path class="st2" d="M369,374.7c-0.3-0.7,0-1,0.7-1C370,374.4,369.5,374.6,369,374.7z"/>
	<path class="st2" d="M339.2,377.9c0-0.1-0.1-0.3-0.1-0.4c0.1,0.1,0.3,0.1,0.4,0.2c0,0-0.1,0.2-0.1,0.2L339.2,377.9z"/>
	<path class="st2" d="M332.3,391.6c-0.1,0.4-0.3,0.4-0.5,0.2c0,0,0.1-0.3,0.2-0.4C332.1,391.3,332.2,391.4,332.3,391.6z"/>
	<path class="st2" d="M308.1,339.2c-0.1-0.5,0.1-0.5,0.5-0.3C308.7,339.4,308.5,339.5,308.1,339.2z"/>
	<path class="st3" d="M360.4,317.2c-0.5-1.6-0.8-2.6-2.2-3c-1-0.3-2.3-1.1-1.5-2.3c0.7-1,2.1-0.5,3,0
		C361.9,313,361.1,314.8,360.4,317.2z"/>
	<path class="st3" d="M346,371.3c-0.3-0.2-0.8,0.2-0.8-0.4c0-0.6,0.7-0.5,1-0.7C346.1,370.5,346.1,370.9,346,371.3z"/>
	<path class="st3" d="M201.2,449.3c0.3,0.5,0.5,0.9,0.8,1.4c-0.4,0.3-0.7,0.6-1.1,1c-0.4-0.1-0.7-0.2-1.1-0.3
		c-0.1-0.5-0.2-0.9-0.3-1.4C200,449.7,200.6,449.5,201.2,449.3z"/>
</g>
</svg>
